<?xml version="1.0" encoding="utf-8"?>
<!-- Generator: Adobe Illustrator 22.0.1, SVG Export Plug-In . SVG Version: 6.00 Build 0)  -->
<svg version="1.1" id="Calque_1" xmlns="http://www.w3.org/2000/svg" xmlns:xlink="http://www.w3.org/1999/xlink" x="0px" y="0px"
	 viewBox="0 0 512 512" style="enable-background:new 0 0 512 512;" xml:space="preserve">
<style type="text/css">
	.st0{fill:#1600E5;}
</style>
<path class="st0" d="M505.1,19.1C503.8,13,499,8.2,492.9,6.9C460.7,0,435.5,0,410.4,0C307.2,0,245.3,55.2,199.1,128H94.9
	c-18.2,0-34.8,10.3-42.9,26.5L2.6,253.3c-8,16,3.6,34.7,21.5,34.7h95.1c-5.9,12.8-11.9,25.5-18,37.7c-3.1,6.2-1.9,13.6,3,18.5
	l63.6,63.6c4.9,4.9,12.3,6.1,18.5,3c12.2-6.1,24.9-12,37.7-17.9V488c0,17.8,18.8,29.4,34.7,21.5l98.7-49.4
	c16.3-8.1,26.5-24.8,26.5-42.9V312.8c72.6-46.3,128-108.4,128-211.1C512,76.5,512,51.3,505.1,19.1L505.1,19.1z M400,160
	c-26.5,0-48-21.5-48-48s21.5-48,48-48s48,21.5,48,48S426.5,160,400,160z"/>
</svg>
